<svg width="170" height="92" viewBox="0 0 170 92" fill="none" xmlns="http://www.w3.org/2000/svg">
<rect x="0.5" y="0.5" width="169" height="91" rx="3.5" stroke="#AFB1B8"/>
<path fill-rule="evenodd" clip-rule="evenodd" d="M82.1135 23.6477H81.9769C81.7669 23.6349 81.557 23.6299 81.347 23.6248H81.347H81.3268H80.8917C80.4945 23.6248 80.0897 23.6349 79.6875 23.6553C79.6572 23.6531 79.6267 23.6531 79.5964 23.6553C75.9521 23.8618 72.3816 24.7726 69.0804 26.3381L68.6478 26.5466V48.6877L69.6597 48.3444C70.5476 48.0393 71.4937 47.7646 72.4727 47.5103C75.1192 46.8309 77.8366 46.4699 80.5678 46.4347V49.3438C80.2061 49.3463 79.8545 49.3565 79.5028 49.3743H79.4193C77.3174 49.4896 75.2315 49.8098 73.1912 50.3304C70.607 50.9774 68.1142 51.9488 65.7715 53.2217V24.825C68.2046 23.4059 70.8252 22.34 73.5554 21.6591C75.9526 21.0402 78.4168 20.7224 80.8917 20.7131H81.3192C81.8302 20.7258 82.3285 20.7487 82.7965 20.7843C84.0296 20.8709 85.2527 21.0658 86.452 21.3667V24.23C85.2873 23.9586 84.103 23.7801 82.9104 23.696C82.8862 23.6939 82.862 23.6919 82.8377 23.6898C82.591 23.6687 82.3439 23.6477 82.1135 23.6477ZM87.1527 26.5745C87.7876 26.6228 88.4453 26.6457 89.1107 26.6457C91.7124 26.6362 94.303 26.304 96.8238 25.6565C99.4067 25.0071 101.898 24.0349 104.241 22.7627V50.6533C101.807 52.0716 99.1852 53.1375 96.4545 53.8193C94.057 54.4358 91.5929 54.7527 89.1182 54.7627C87.2432 54.7778 85.3736 54.5574 83.5529 54.1066V26.0354C83.9829 26.1346 84.4256 26.2261 84.8759 26.3024C85.6146 26.427 86.3937 26.5186 87.1527 26.5745ZM101.347 26.7907L100.335 27.1314C99.4041 27.4442 98.4656 27.7239 97.522 27.9731C94.7748 28.6791 91.9513 29.0412 89.1157 29.0513C88.4555 29.0513 87.8483 29.0335 87.2614 28.9954L86.4545 28.942V49.031V51.7188L87.1476 51.7799C87.7901 51.8358 88.4529 51.8638 89.1208 51.8638C91.3543 51.8543 93.578 51.5664 95.7411 51.0068C97.5222 50.56 99.2551 49.9374 100.914 49.1479L101.347 48.9394V26.7907Z" fill="#AFB1B8"/>
<path d="M67.7373 62.9255C67.5918 62.7746 67.4164 62.6562 67.2225 62.5777C67.0286 62.4993 66.8204 62.4627 66.6115 62.4703C66.3889 62.4674 66.1679 62.5089 65.9614 62.5924C65.772 62.6678 65.5999 62.7812 65.4554 62.9255C65.3126 63.0703 65.2014 63.2436 65.1291 63.4341C65.0498 63.6338 65.0103 63.8472 65.0127 64.0622V67.8562C65.0037 68.1236 65.0547 68.3895 65.162 68.6344C65.2516 68.8288 65.3808 69.0021 65.5415 69.1429C65.6931 69.2706 65.8711 69.3627 66.0626 69.4125C66.2471 69.4643 66.4377 69.4909 66.6292 69.4913C66.8405 69.4934 67.0497 69.4483 67.2414 69.3591C67.4311 69.2761 67.6029 69.1569 67.7474 69.0082C67.8883 68.8608 68.0006 68.6883 68.0788 68.4996C68.1599 68.3083 68.2012 68.1023 68.2002 67.8944V67.4697H67.2085V67.8079C67.2115 67.9234 67.1917 68.0383 67.1504 68.1461C67.1181 68.2269 67.0689 68.2997 67.0062 68.3597C66.9447 68.4094 66.8743 68.4465 66.7987 68.4691C66.7318 68.4914 66.6618 68.5034 66.5913 68.5047C66.5028 68.515 66.4131 68.5016 66.3313 68.4659C66.2496 68.4301 66.1787 68.3734 66.1258 68.3012C66.0323 68.1488 65.9865 67.9716 65.9943 67.7927V64.2555C65.9881 64.0593 66.0298 63.8646 66.1157 63.6884C66.1672 63.6083 66.24 63.5444 66.3259 63.5039C66.4118 63.4635 66.5072 63.4481 66.6014 63.4595C66.6869 63.4565 66.7718 63.4743 66.8489 63.5115C66.926 63.5487 66.993 63.6042 67.0441 63.6731C67.1551 63.8188 67.2131 63.9983 67.2085 64.1817V64.5098H68.1901V64.1232C68.1921 63.8962 68.1509 63.671 68.0686 63.4595C67.9954 63.2608 67.8826 63.0791 67.7373 62.9255Z" fill="#AFB1B8"/>
<path d="M73.6289 62.8822C73.3127 62.6152 72.9136 62.4677 72.5007 62.4652C72.2987 62.4661 72.0984 62.5022 71.9087 62.572C71.7161 62.641 71.5384 62.7463 71.3851 62.8822C71.2208 63.0299 71.0897 63.2111 71.0005 63.4137C70.9006 63.6455 70.8515 63.8961 70.8563 64.1486V67.7875C70.8495 68.0435 70.8987 68.2979 71.0005 68.5326C71.0903 68.7283 71.2215 68.9019 71.3851 69.0412C71.5367 69.1819 71.7147 69.2909 71.9087 69.3616C72.0984 69.4314 72.2987 69.4675 72.5007 69.4684C72.7027 69.468 72.9031 69.4319 73.0926 69.3616C73.29 69.2899 73.4719 69.1812 73.6289 69.0412C73.7871 68.8993 73.9145 68.7261 74.0033 68.5326C74.1051 68.2979 74.1544 68.0435 74.1475 67.7875V64.1486C74.1524 63.8961 74.1032 63.6455 74.0033 63.4137C73.9151 63.2132 73.7878 63.0325 73.6289 62.8822ZM73.166 67.7875C73.1743 67.8845 73.1609 67.9821 73.1268 68.0732C73.0926 68.1643 73.0386 68.2466 72.9687 68.3139C72.8377 68.4238 72.6725 68.4839 72.5019 68.4839C72.3313 68.4839 72.1662 68.4238 72.0352 68.3139C71.9652 68.2466 71.9112 68.1643 71.8771 68.0732C71.8429 67.9821 71.8295 67.8845 71.8379 67.7875V64.1486C71.8295 64.0516 71.8429 63.954 71.8771 63.8629C71.9112 63.7718 71.9652 63.6896 72.0352 63.6222C72.1662 63.5124 72.3313 63.4522 72.5019 63.4522C72.6725 63.4522 72.8377 63.5124 72.9687 63.6222C73.0386 63.6896 73.0926 63.7718 73.1268 63.8629C73.1609 63.954 73.1743 64.0516 73.166 64.1486V67.7875Z" fill="#AFB1B8"/>
<path d="M81.3673 69.4125V62.5238H80.4136L79.1614 66.1703H79.1437L77.8813 62.5238H76.9377V69.4125H77.9218V65.2218H77.9395L78.9033 68.1843H79.3941L80.3655 65.2218H80.3832V69.4125H81.3673Z" fill="#AFB1B8"/>
<path d="M86.9582 63.0068C86.8067 62.8368 86.6154 62.7075 86.4016 62.6304C86.1713 62.5555 85.9303 62.5194 85.6883 62.5236H84.2261V69.4124H85.2076V66.722H85.7136C86.0198 66.7359 86.3245 66.6712 86.599 66.5338C86.8221 66.4099 87.0082 66.2281 87.1378 66.0074C87.2513 65.8242 87.3278 65.6203 87.3629 65.4073C87.4016 65.1481 87.4193 64.8862 87.4161 64.6241C87.4256 64.2933 87.3933 63.9626 87.3199 63.64C87.2545 63.4016 87.13 63.1838 86.9582 63.0068ZM86.4522 65.1072C86.448 65.232 86.4169 65.3543 86.3612 65.4658C86.3051 65.5717 86.2163 65.6565 86.1082 65.7074C85.9628 65.7724 85.8042 65.802 85.6453 65.7938H85.1975V63.4518H85.7034C85.8558 63.4443 86.0077 63.474 86.1461 63.5383C86.2476 63.5965 86.3282 63.6855 86.3763 63.7926C86.43 63.9136 86.4592 64.0441 86.4624 64.1765C86.4624 64.3215 86.4624 64.4741 86.4624 64.6343C86.4624 64.7945 86.4725 64.9598 86.4624 65.1072H86.4522Z" fill="#AFB1B8"/>
<path d="M91.6077 62.5238H90.8032L89.2854 69.4125H90.2669L90.5553 67.9326H91.8935L92.1819 69.4125H93.1635L91.6077 62.5238ZM90.702 66.9942L91.1852 64.4971H91.2029L91.6836 66.9942H90.702Z" fill="#AFB1B8"/>
<path d="M97.9497 66.6738H97.932L96.4496 62.5238H95.506V69.4125H96.4875V65.2701H96.5078L98.0079 69.4125H98.9312V62.5238H97.9497V66.6738Z" fill="#AFB1B8"/>
<path d="M103.948 62.5238L103.158 65.2625H103.138L102.349 62.5238H101.309L102.657 66.5009V69.4125H103.639V66.5009L104.987 62.5238H103.948Z" fill="#AFB1B8"/>
<path d="M65 71.3577H65.4731V72.6851H65.7943V71.3577H66.2649V71.0856H65V71.3577Z" fill="#AFB1B8"/>
<path d="M68.9767 71.0856L68.3569 72.6851H68.6984L68.83 72.3214H69.4675L69.6041 72.6851H69.9532L69.3182 71.0856H68.9767ZM68.9261 72.0519L69.1437 71.4594L69.3612 72.0519H68.9261Z" fill="#AFB1B8"/>
<path d="M72.9079 72.0953H73.2773V72.3012C73.1694 72.3877 73.0358 72.4352 72.8978 72.436C72.8333 72.4396 72.7689 72.4277 72.7099 72.4011C72.6509 72.3746 72.5991 72.3342 72.5588 72.2834C72.474 72.1617 72.4322 72.0149 72.4399 71.8664C72.4399 71.5104 72.5942 71.3324 72.9003 71.3324C72.9809 71.3244 73.0617 71.3456 73.128 71.3922C73.1944 71.4389 73.2419 71.5079 73.2621 71.5867L73.5783 71.5257C73.51 71.2129 73.2849 71.0552 72.9003 71.0552C72.6947 71.0497 72.4947 71.1234 72.3413 71.2612C72.2607 71.3408 72.1983 71.4371 72.1586 71.5433C72.1188 71.6496 72.1026 71.7633 72.1111 71.8766C72.1017 72.0954 72.1749 72.3097 72.316 72.4767C72.3943 72.5575 72.4892 72.6202 72.594 72.6606C72.6988 72.701 72.8111 72.7181 72.9231 72.7106C73.1734 72.7176 73.4165 72.6264 73.6011 72.4564V71.8257H72.9079V72.0953Z" fill="#AFB1B8"/>
<path d="M76.9224 71.0856H76.5986V72.6851H77.7193V72.413H76.9224V71.0856Z" fill="#AFB1B8"/>
<path d="M80.3175 71.0856H79.9937V72.6851H80.3175V71.0856Z" fill="#AFB1B8"/>
<path d="M83.6364 72.1536L82.9812 71.0856H82.6675V72.6851H82.9685V71.6399L83.6111 72.6851H83.9323V71.0856H83.6364V72.1536Z" fill="#AFB1B8"/>
<path d="M86.6368 71.9807H87.4337V71.7086H86.6368V71.3577H87.4944V71.0856H86.313V72.6851H87.5273V72.413H86.6368V71.9807Z" fill="#AFB1B8"/>
<path d="M93.9122 71.7162H93.2823V71.0856H92.9611V72.6851H93.2823V71.9858H93.9122V72.6851H94.2335V71.0856H93.9122V71.7162Z" fill="#AFB1B8"/>
<path d="M96.9302 71.9807H97.7296V71.7086H96.9302V71.3577H97.7903V71.0856H96.6089V72.6851H97.8206V72.413H96.9302V71.9807Z" fill="#AFB1B8"/>
<path d="M101.023 71.9807C101.302 71.9375 101.443 71.79 101.443 71.5357C101.451 71.4677 101.441 71.3987 101.413 71.3361C101.386 71.2735 101.342 71.2194 101.286 71.1797C101.141 71.107 100.98 71.0745 100.818 71.0856H100.14V72.6851H100.462V72.0163H100.525C100.593 72.0121 100.662 72.0243 100.725 72.0519C100.772 72.0809 100.811 72.1211 100.839 72.1689L101.188 72.6775H101.572L101.377 72.3647C101.291 72.2103 101.17 72.0787 101.023 71.9807ZM100.699 71.7595H100.462V71.3577H100.715C100.825 71.3488 100.936 71.3618 101.041 71.3959C101.064 71.4165 101.083 71.4422 101.095 71.471C101.107 71.4998 101.113 71.531 101.111 71.5623C101.11 71.5936 101.101 71.6241 101.087 71.6516C101.072 71.6792 101.051 71.703 101.026 71.7214C100.92 71.7537 100.81 71.7667 100.699 71.7595Z" fill="#AFB1B8"/>
<path d="M104.11 71.9807H104.906V71.7086H104.11V71.3577H104.97V71.0856H103.786V72.6851H105V72.413H104.11V71.9807Z" fill="#AFB1B8"/>
</svg>
